<svg width="105" height="84" viewBox="0 0 105 84" fill="none" xmlns="http://www.w3.org/2000/svg">
<path d="M57.75 0C59.1424 0 60.4777 0.553138 61.4623 1.53773C62.4469 2.52232 63 3.8577 63 5.25012H84C84.7904 5.25014 85.5706 5.42861 86.2823 5.77224C86.9941 6.11587 87.6191 6.61577 88.1108 7.23467L88.4993 7.80169L104.249 34.0523L104.538 34.5931L104.748 35.1548L104.9 35.7271L104.984 36.3046L105 36.7509V68.2516C105 69.644 104.447 70.9794 103.462 71.964C102.478 72.9486 101.142 73.5017 99.75 73.5017H93.6022C92.5154 76.5722 90.5037 79.2304 87.8439 81.1105C85.1842 82.9905 82.0071 84 78.75 84C75.4929 84 72.3158 82.9905 69.6561 81.1105C66.9963 79.2304 64.9846 76.5722 63.8977 73.5017H41.1023C40.0154 76.5722 38.0037 79.2304 35.3439 81.1105C32.6842 82.9905 29.5071 84 26.25 84C22.9929 84 19.8158 82.9905 17.1561 81.1105C14.4963 79.2304 12.4846 76.5722 11.3977 73.5017H5.25C3.85761 73.5017 2.52226 72.9486 1.53769 71.964C0.553123 70.9794 0 69.644 0 68.2516V10.5002C0 7.71541 1.10625 5.04463 3.07538 3.07545C5.04451 1.10627 7.71523 0 10.5 0H57.75ZM26.25 63.0015C24.8576 63.0015 23.5223 63.5546 22.5377 64.5392C21.5531 65.5238 21 66.8592 21 68.2516C21 69.644 21.5531 70.9794 22.5377 71.964C23.5223 72.9486 24.8576 73.5017 26.25 73.5017C27.6424 73.5017 28.9777 72.9486 29.9623 71.964C30.9469 70.9794 31.5 69.644 31.5 68.2516C31.5 66.8592 30.9469 65.5238 29.9623 64.5392C28.9777 63.5546 27.6424 63.0015 26.25 63.0015ZM78.75 63.0015C77.3576 63.0015 76.0223 63.5546 75.0377 64.5392C74.0531 65.5238 73.5 66.8592 73.5 68.2516C73.5 69.644 74.0531 70.9794 75.0377 71.964C76.0223 72.9486 77.3576 73.5017 78.75 73.5017C80.1424 73.5017 81.4777 72.9486 82.4623 71.964C83.4469 70.9794 84 69.644 84 68.2516C84 66.8592 83.4469 65.5238 82.4623 64.5392C81.4777 63.5546 80.1424 63.0015 78.75 63.0015ZM81.0285 15.7504H63V31.5007H90.4785L81.0285 15.7504Z" fill="#333B8C"/>
</svg>
